<?xml version="1.0" standalone="no"?>
<!DOCTYPE svg PUBLIC "-//W3C//DTD SVG 20010904//EN"
 "http://www.w3.org/TR/2001/REC-SVG-20010904/DTD/svg10.dtd">
<svg version="1.0" xmlns="http://www.w3.org/2000/svg"
 width="302.000000pt" height="80.000000pt" viewBox="0 0 302.000000 80.000000"
 preserveAspectRatio="xMidYMid meet">
<metadata>
Created by potrace 1.16, written by Peter Selinger 2001-2019
</metadata>
<g transform="translate(0.000000,80.000000) scale(0.100000,-0.100000)"
fill="#000000" stroke="none">
<path d="M267 748 c-8 -24 -67 -191 -130 -373 -63 -181 -118 -338 -122 -347
-7 -17 5 -18 167 -18 l174 0 26 78 c43 126 198 555 202 560 2 2 10 -14 16 -35
11 -34 39 -113 176 -495 l39 -108 172 0 172 0 -29 82 c-15 46 -63 182 -105
303 -42 121 -91 259 -107 308 -27 80 -32 87 -56 87 -26 0 -27 -2 -27 -62 l0
-62 -32 -2 -33 -2 0 64 0 64 -40 0 -40 0 0 -63 0 -63 -30 0 c-16 0 -31 3 -31
8 -1 4 -2 32 -3 61 l-1 52 -40 0 -40 0 0 -61 0 -60 -32 -1 c-18 -1 -33 2 -34
5 -1 4 -2 32 -3 62 l-1 55 -37 3 -38 3 0 -64 c0 -69 3 -67 -62 -58 -5 1 -8 28
-8 61 0 57 -1 60 -24 60 -19 0 -27 -8 -39 -42z"/>
<path d="M1306 737 c-10 -28 -29 -73 -41 -99 l-22 -46 22 -5 c20 -3 22 -2 12
15 -17 26 2 52 41 56 34 3 58 -25 49 -57 -3 -14 1 -17 20 -13 15 3 21 8 15 16
-5 6 -22 47 -37 91 -16 44 -31 83 -34 87 -4 4 -15 -16 -25 -45z m33 -37 c10
-29 9 -30 -19 -30 -28 0 -29 1 -19 30 6 17 15 30 19 30 4 0 13 -13 19 -30z"/>
<path d="M1449 766 c13 -37 6 -156 -10 -167 -16 -10 -22 -9 78 -12 51 -2 63 1
67 15 3 14 1 16 -14 8 -32 -17 -87 -12 -92 8 -8 31 3 157 15 164 6 4 -3 6 -20
6 -27 -1 -30 -4 -24 -22z"/>
<path d="M1619 697 c2 -67 0 -92 -10 -98 -9 -6 2 -9 31 -8 35 0 40 2 24 9 -19
7 -21 16 -20 92 1 79 2 83 25 86 59 9 101 -27 103 -88 1 -44 -21 -79 -56 -90
l-31 -10 35 5 c94 13 109 140 23 184 -13 6 -46 11 -75 10 l-53 -2 4 -90z"/>
<path d="M1838 699 c2 -53 -1 -95 -7 -103 -8 -10 -5 -12 12 -10 12 1 31 3 42
4 19 1 19 2 1 9 -27 10 -33 61 -10 78 14 10 14 13 3 13 -18 0 -23 71 -6 82 21
13 69 9 81 -8 10 -13 12 -13 13 5 2 19 -4 21 -65 21 l-67 0 3 -91z"/>
<path d="M2003 783 c19 -5 19 -8 18 -106 -1 -74 -6 -91 -24 -81 -7 4 -9 3 -4
-1 4 -5 23 -9 42 -10 30 0 32 1 21 15 -18 20 -13 169 6 181 8 6 -4 8 -32 8
-25 -1 -37 -3 -27 -6z"/>
<path d="M2174 775 c-4 -11 -24 -59 -44 -106 l-36 -86 24 5 c14 3 19 8 13 12
-8 5 -9 14 -2 33 9 22 17 27 45 27 29 0 36 -5 44 -29 8 -22 7 -31 -1 -35 -7
-2 4 -5 23 -5 22 0 30 2 22 7 -7 5 -28 51 -46 103 -27 73 -36 89 -42 74z m20
-82 c6 -20 4 -23 -18 -23 -29 0 -31 6 -15 47 11 30 19 24 33 -24z"/>
<path d="M2353 783 c16 -2 31 -11 34 -19 8 -20 22 -17 16 4 -3 13 -14 18 -41
19 -28 0 -30 -1 -9 -4z"/>
<path d="M2302 768 c-17 -17 -15 -53 3 -68 8 -7 30 -20 48 -29 37 -19 48 -55
20 -68 -10 -5 -24 -8 -30 -7 -7 1 -17 2 -22 3 -5 0 -17 8 -25 17 -15 14 -16
14 -16 -5 0 -16 7 -21 28 -22 76 -4 102 7 102 45 0 30 -10 41 -59 65 -39 21
-43 25 -37 52 6 32 5 34 -12 17z"/>
<path d="M1940 699 c0 -5 -4 -8 -8 -5 -4 2 -14 1 -22 -5 -12 -7 -10 -9 7 -9
12 0 24 -6 26 -12 3 -7 6 -1 6 15 1 15 -1 27 -4 27 -3 0 -5 -5 -5 -11z"/>
<path d="M1965 614 c-6 -8 -20 -16 -32 -17 -13 -1 -23 -5 -23 -10 0 -12 53 2
62 16 8 12 11 27 5 27 -1 0 -7 -7 -12 -16z"/>
<path d="M1980 539 c-17 -30 -6 -34 14 -4 9 14 12 25 7 25 -6 0 -15 -9 -21
-21z"/>
<path d="M1251 492 c-9 -3 -9 -7 0 -18 7 -9 9 -42 6 -98 l-5 -83 26 0 c15 0
21 2 15 4 -8 3 -13 23 -13 49 l0 44 65 0 65 0 -3 -33 c-2 -18 -6 -38 -11 -45
-4 -7 -1 -12 8 -12 24 0 31 4 27 15 -7 19 0 159 9 170 5 6 -2 10 -20 11 -24 1
-28 -2 -21 -15 5 -9 8 -29 7 -46 -1 -30 -1 -30 -63 -31 l-63 -1 0 36 c0 21 4
41 10 47 10 10 -16 14 -39 6z"/>
<path d="M1480 486 c6 -5 10 -46 10 -89 0 -61 -4 -83 -16 -91 -13 -10 -11 -12
13 -11 l28 0 0 100 c0 98 -1 101 -22 101 -15 0 -20 -3 -13 -10z"/>
<path d="M1580 480 c-11 -11 -20 -28 -20 -38 0 -19 29 -52 46 -52 17 -1 45
-28 49 -48 4 -22 -12 -39 -32 -36 -7 1 -19 2 -27 3 -8 0 -22 8 -30 17 -14 13
-16 14 -16 0 0 -33 78 -44 109 -14 24 22 24 19 11 52 -5 15 -26 33 -47 43 -46
22 -55 54 -21 77 12 9 17 16 10 16 -6 0 -21 -9 -32 -20z"/>
<path d="M1647 476 c14 -19 19 -21 21 -9 2 9 -2 19 -10 24 -24 16 -29 9 -11
-15z"/>
<path d="M1778 493 c-49 -2 -88 -7 -88 -11 0 -4 17 -7 37 -7 l38 0 3 -80 c2
-63 0 -82 -13 -91 -13 -10 -11 -12 12 -11 l28 2 -3 92 -4 93 35 0 c20 0 38 -6
40 -12 3 -7 6 -3 6 10 1 12 0 21 -1 20 -2 -1 -42 -4 -90 -5z"/>
<path d="M1941 486 c-95 -53 -40 -218 64 -192 82 21 103 143 32 186 -37 23
-63 25 -96 6z m69 -11 c33 -17 55 -71 45 -114 -20 -92 -129 -63 -142 37 -5 34
-1 44 20 66 30 30 38 31 77 11z"/>
<path d="M2120 490 c-14 -4 -20 -8 -14 -9 13 -1 14 -158 2 -176 -4 -6 2 -11
13 -11 16 0 20 6 19 31 -4 77 14 88 50 30 23 -38 56 -65 78 -65 7 0 1 11 -15
24 -16 13 -35 35 -42 49 -12 22 -12 28 3 42 19 19 21 58 4 73 -7 5 -24 12 -38
16 -25 6 -25 6 -2 -6 47 -24 36 -88 -15 -88 -25 0 -25 2 -21 50 3 28 5 50 4
49 -1 -1 -12 -5 -26 -9z"/>
<path d="M2314 481 c8 -24 9 -154 2 -171 -5 -11 1 -15 25 -16 20 -1 26 2 17 7
-8 5 -13 34 -15 85 -2 84 3 107 21 97 6 -3 7 -2 3 3 -4 4 -19 9 -33 10 -18 1
-23 -3 -20 -15z"/>
<path d="M2444 484 c-84 -41 -62 -170 31 -188 l30 -5 -32 14 c-39 18 -55 45
-56 98 -1 31 5 44 27 63 32 28 53 30 84 8 19 -13 22 -13 22 -1 0 28 -60 34
-106 11z"/>
<path d="M2631 438 c-13 -34 -33 -81 -45 -103 l-22 -40 22 0 c15 0 20 5 16 18
-3 10 0 28 6 40 5 12 16 39 24 60 l14 38 17 -36 c9 -19 12 -35 7 -35 -6 0 -10
-5 -10 -11 0 -5 4 -8 9 -5 12 8 32 -49 21 -60 -5 -5 4 -9 20 -9 21 0 26 3 18
12 -5 6 -24 53 -42 103 l-33 92 -22 -64z"/>
<path d="M2783 488 c-17 -8 -23 -20 -23 -42 0 -26 7 -35 45 -58 49 -30 59 -59
28 -85 -16 -13 -15 -13 7 0 28 16 38 60 18 80 -7 7 -25 18 -40 24 -15 7 -32
21 -37 32 -9 16 -7 24 11 41 24 22 23 23 -9 8z"/>
<path d="M2835 484 c22 -16 35 -18 35 -5 0 5 -12 11 -27 14 -26 5 -26 4 -8 -9z"/>
<path d="M2630 370 c0 -5 5 -10 10 -10 6 0 10 5 10 10 0 6 -4 10 -10 10 -5 0
-10 -4 -10 -10z"/>
<path d="M2528 318 c-15 -15 -16 -18 -3 -18 9 0 18 7 22 15 8 23 0 24 -19 3z"/>
<path d="M2750 323 c0 -13 6 -23 14 -23 8 0 21 -3 30 -6 9 -3 16 -1 16 5 0 6
-9 11 -20 11 -10 0 -24 8 -29 18 -9 15 -10 15 -11 -5z"/>
<path d="M1256 200 c-1 -3 -1 -43 0 -90 1 -53 -3 -88 -10 -92 -22 -15 105 -8
134 7 81 42 60 160 -32 179 -41 8 -49 0 -8 -9 36 -8 72 -57 65 -90 -2 -11 -4
-25 -4 -32 -2 -26 -45 -53 -83 -53 l-38 0 0 83 c0 46 4 87 10 93 6 6 3 10 -11
10 -11 0 -22 -3 -23 -6z"/>
<path d="M1528 201 c16 -9 18 -167 3 -184 -8 -10 -2 -12 26 -9 24 3 31 7 22
13 -8 4 -15 20 -16 34 -1 21 2 25 25 25 63 0 95 54 58 97 -18 20 -33 26 -76
29 -30 1 -48 -1 -42 -5z m82 -11 c23 -12 34 -55 20 -80 -7 -13 -21 -20 -39
-20 -28 0 -29 1 -26 53 1 28 3 53 4 55 2 5 23 1 41 -8z"/>
<path d="M1733 191 c-69 -43 -63 -145 11 -176 24 -10 42 -12 58 -6 21 9 21 10
-9 10 -54 1 -89 51 -81 116 4 36 48 70 77 60 55 -17 86 -96 56 -142 -23 -34
-12 -40 14 -7 49 62 1 164 -77 164 -9 0 -31 -9 -49 -19z"/>
<path d="M1907 197 c11 -18 12 -161 1 -174 -8 -10 -4 -13 15 -13 17 0 25 5 22
13 -2 6 -6 27 -9 45 -6 45 23 43 60 -5 34 -45 54 -62 74 -63 10 0 7 5 -7 15
-12 8 -31 31 -43 50 -21 33 -21 37 -6 54 23 25 20 57 -6 75 -32 23 -46 20 -20
-4 37 -35 23 -80 -24 -80 -20 0 -23 6 -26 47 -2 35 -7 47 -21 49 -11 1 -14 -2
-10 -9z"/>
<path d="M2064 201 c-12 -12 0 -16 36 -13 l40 4 0 -82 c0 -63 -4 -86 -15 -94
-12 -9 -7 -11 24 -11 34 0 38 2 27 15 -9 10 -13 41 -12 90 1 75 1 75 30 78 16
2 32 -2 36 -8 5 -8 9 -7 13 4 5 12 0 16 -16 16 -12 1 -53 2 -90 3 -38 1 -71 0
-73 -2z"/>
<path d="M2277 133 c1 -40 5 -82 8 -93 12 -37 114 -43 137 -8 15 24 8 33 -8
10 -19 -27 -75 -30 -99 -5 -14 13 -16 32 -13 93 2 62 0 76 -12 76 -12 0 -15
-14 -13 -73z"/>
<path d="M2434 202 c-6 -4 -8 -28 -5 -57 l5 -50 6 55 c8 63 8 61 -6 52z"/>
<path d="M2585 200 c3 -5 12 -10 20 -10 8 0 19 -8 24 -17 9 -16 10 -16 11 3 0
14 -8 24 -22 28 -33 8 -40 7 -33 -4z"/>
<path d="M2879 118 c2 -68 0 -93 -10 -99 -9 -5 14 -9 57 -9 56 0 73 3 78 16 9
25 7 27 -10 9 -11 -10 -29 -15 -53 -13 l-36 3 -2 74 c-1 41 2 82 7 90 6 12 3
16 -13 17 -21 2 -22 -2 -18 -88z"/>
<path d="M2513 182 c-32 -25 -46 -69 -33 -105 17 -49 46 -67 111 -67 l57 0 4
48 c3 43 1 47 -19 47 -25 0 -28 -6 -12 -22 6 -6 9 -21 7 -34 -2 -19 -10 -25
-39 -27 -51 -4 -80 22 -86 79 -4 38 -2 48 22 72 31 30 22 36 -12 9z"/>
<path d="M2731 138 c-13 -35 -32 -78 -42 -95 l-18 -33 27 0 c18 0 23 3 14 8
-9 7 -10 15 -3 35 8 21 17 27 40 27 32 0 57 -30 47 -56 -4 -10 2 -14 18 -14
l24 0 -18 38 c-10 20 -26 63 -36 95 -10 31 -20 57 -23 57 -4 0 -17 -28 -30
-62z m45 -45 c-2 -3 -15 -3 -28 -1 -24 3 -24 4 -10 38 l14 35 14 -34 c8 -19
12 -36 10 -38z"/>
<path d="M1300 135 c0 -19 4 -35 8 -35 4 0 8 12 7 28 0 22 4 27 22 26 12 0 20
3 17 8 -3 4 -16 8 -30 8 -21 0 -24 -5 -24 -35z"/>
<path d="M1338 103 c7 -3 16 -2 19 1 4 3 -2 6 -13 5 -11 0 -14 -3 -6 -6z"/>
<path d="M1300 71 c0 -23 16 -36 25 -21 3 5 1 10 -5 10 -7 0 -10 7 -6 15 3 8
1 15 -4 15 -6 0 -10 -9 -10 -19z"/>
<path d="M2420 80 c0 -5 5 -10 10 -10 6 0 10 5 10 10 0 6 -4 10 -10 10 -5 0
-10 -4 -10 -10z"/>
<path d="M1349 53 c-13 -16 -12 -17 4 -4 16 13 21 21 13 21 -2 0 -10 -8 -17
-17z"/>
</g>
</svg>
